<?xml version="1.0" encoding="utf-8"?>
<!-- Generator: Adobe Illustrator 24.3.0, SVG Export Plug-In . SVG Version: 6.00 Build 0)  -->
<svg version="1.1" id="Layer_1" xmlns="http://www.w3.org/2000/svg" xmlns:xlink="http://www.w3.org/1999/xlink" x="0px" y="0px"
	 viewBox="0 0 1080 1080" style="enable-background:new 0 0 1080 1080;" xml:space="preserve">
<style type="text/css">
	.st0{fill:none;stroke:#000000;stroke-width:8;stroke-linecap:round;stroke-linejoin:round;stroke-miterlimit:10;}
</style>
<g>
	<path class="st0" d="M689.9,760.6c61.4-29.6,94.3-80.2,107.1-145.5c6.8-35.4,13-70.8,20.1-106.1c9-44.2,28.1-84.6,47.9-124.7
		c4.7-9.7,9.2-19.6,13.5-29.4c2.4-5.4,0.3-11.7-5-14.3c-18.1-9-36.3-3.7-53.1,4.6c-42.4,20.8-68.4,57.7-88.3,98.9
		c-18.3,37.9-48.1,43.3-73.8,8.5c-22.1-29.8-41.1-62.6-56.2-96.5c-35.7-79.9-68.2-161.1-101.9-241.9c-3.3-7.9-5-16.6-8.7-24.3
		c-5.7-11.7-13.9-19.8-28.6-16.7c-2.3,0.4-4.4,1.8-5.9,3.5c-11.9,14-5.6,30.8-1.2,46.2c13,45.9,27.2,91.3,41.4,136.8
		c8.6,27.5,18.3,54.6,27,82c4,12.6,7.3,25.4,10.9,38.7c1.3,4.8-0.9,10-5.3,12.5l-2.2,1.1c-3.4,1.9-7.6,2-10.9-0.1
		c-23.4-13.8-35.5-37.5-51.2-57.5c-42.9-54.5-78.8-114.6-130.2-162.1l-4.1-4.3c-9.7-10-20.1-19.3-31.1-27.8l0,0
		c-3.5-3.2-8.6-3.9-12.6-1.6c-9.4,5.3-11.5,14.3-5,27.2c9.5,19,20.7,37.4,32.9,54.9c44,62.9,88.8,125.1,133.2,187.5
		c2.3,3.3,5.5,6.3,7.4,9.8c5.5,10.2,10.4,23.1,0.1,30.7c-9.1,6.9-21.4,2.7-30.7-6.1c-16.4-15.6-32.7-31.3-49.9-45.8
		c-45.8-38.9-91.8-77.5-137.9-116c-3.9-3.2-8.5-5.8-12.8-8.7c-8.4-5.9-17.9-10.2-26.2-2c-9.4,9.4-4.5,18.8,1.5,29.3
		c24,41.9,59.6,73.2,93.7,105.9c28.9,27.8,58.1,55.4,86.9,83.3c5,4.9,11.1,9.7,13.9,15.8c4.7,10.2,13.5,20.4,3.3,32.9
		c-8.8,10.8-20.4,11.1-31.7,9.5c-46.9-7.4-93.6-16-140.5-24.1c-11.5-2-23.1-4.4-34.6-6.1c-10.6-1.6-14.3,0-18.8,9.9
		c-1.9,3.9-1.2,8.6,1.8,12c14.8,16.2,36.3,21.5,56.4,25.5c56,11.3,108,31.2,153.5,65.6c23.5,17.7,43.6,39.8,65.9,59.1
		c19.3,16.6,37.4,36.4,59.9,47c58,27.4,85,74,96.9,134.1c6.9,35.2,18.1,69.5,27.4,104.2"/>
	<path class="st0" d="M756.8,714.1c12,54.6,23.6,109.4,36.1,163.8c4.1,17.8,10.4,35.2,15.7,52.7"/>
	<path class="st0" d="M601.5,490c-35.5,50.1-43.8,108-47.1,167.1"/>
</g>
</svg>
