<svg width="48" height="48" viewBox="0 0 48 48" fill="none" xmlns="http://www.w3.org/2000/svg">
<path d="M25 14C25 12.8954 24.1046 12 23 12C21.8954 12 21 12.8954 21 14V20C21 21.1046 21.8954 22 23 22C24.1046 22 25 21.1046 25 20V14Z" fill="black"/>
<path fill-rule="evenodd" clip-rule="evenodd" d="M6 16C6 8.26802 12.268 2 20 2H26C33.732 2 40 8.26802 40 16V32C40 39.732 33.732 46 26 46H20C12.268 46 6 39.732 6 32V16ZM20 6H26C31.5228 6 36 10.4772 36 16V32C36 37.5228 31.5228 42 26 42H20C14.4772 42 10 37.5228 10 32V16C10 10.4772 14.4772 6 20 6Z" fill="black"/>
</svg>
