<?xml version="1.0" encoding="utf-8"?>
<!-- Generator: Adobe Illustrator 24.3.0, SVG Export Plug-In . SVG Version: 6.00 Build 0)  -->
<svg version="1.1" id="Layer_1" xmlns="http://www.w3.org/2000/svg" xmlns:xlink="http://www.w3.org/1999/xlink" x="0px" y="0px"
	 viewBox="0 0 1080 1080" style="enable-background:new 0 0 1080 1080;" xml:space="preserve" fill="#1e1e1e">
<g>
	<path d="M636.91,598.95v69.75H243.75c-61.82,0-111.94-50.12-111.94-111.94v-158.3c0.27-5.89,0.75-11.77,1.43-17.64
		c3-26.08,9.97-51.8,20.91-76.16c6.98-15.53,15.57-30.52,25.78-44.71c7.92-11.01,16.81-21.53,26.68-31.46
		c0.18-0.18,0.37-0.37,0.54-0.54c6.75-6.75,13.78-13.05,21.06-18.89c8.95-7.2,18.26-13.71,27.89-19.54
		c23.9-14.47,49.64-24.74,76.16-30.75c17.88-4.07,36.12-6.22,54.36-6.44h6.19c5.21,0.07,10.41,0.29,15.61,0.67
		c25.93,1.87,51.63,7.64,76.16,17.31v109.12c-22.92-16.65-49.22-26.52-76.16-29.63c-25.59-2.96-51.77,0.18-76.17,9.42
		c-20.76,7.87-40.23,20.18-56.94,36.89c-2.77,2.77-5.42,5.62-7.94,8.54c-4.07,4.68-7.83,9.57-11.27,14.6
		c-12.93,18.87-21.41,39.88-25.43,61.56c-1.26,6.73-2.08,13.54-2.46,20.37c-0.38,6.22-0.38,12.48,0,18.71
		c0,42.08,17.07,80.19,44.64,107.76c27.58,27.59,65.67,44.64,107.76,44.64h27.81h201.84C624.99,572.29,636.91,584.23,636.91,598.95z
		"/>
	<path d="M949.01,483.92v197.94c-0.27,5.89-0.75,11.77-1.43,17.64c-3,26.08-9.97,51.8-20.91,76.16
		c-6.98,15.53-15.57,30.52-25.78,44.71c-7.92,11.01-16.81,21.53-26.68,31.46l-0.54,0.54c-6.75,6.75-13.78,13.05-21.06,18.89
		c-8.95,7.2-18.26,13.71-27.89,19.54c-23.9,14.47-49.64,24.74-76.16,30.75c-17.88,4.07-36.12,6.22-54.36,6.44h-6.19
		c-5.21-0.07-10.41-0.29-15.61-0.67c-25.93-1.87-51.63-7.64-76.16-17.31V800.88c22.92,16.65,49.22,26.52,76.16,29.63
		c25.59,2.96,51.77-0.18,76.17-9.42c20.76-7.87,40.23-20.18,56.94-36.89c24.45-24.45,40.56-56.83,45.35-91.09
		c4.47-31.89-0.72-95.43-1.07-98.16c-4.1-31.57-19.39-59.51-41.82-81.93c-27.58-27.59-65.67-44.64-107.76-44.64H470.56
		c-14.73,0-26.65-11.93-26.65-26.65v-69.75h393.16C898.89,371.97,949.01,422.1,949.01,483.92z"/>
	<path d="M684.58,205.5v40.88c0,15.46-12.53,27.99-27.99,27.99h-39.36c-15.46,0-27.99-12.53-27.99-27.99V205.5
		c0-15.46,12.53-27.99,27.99-27.99h39.36C672.05,177.51,684.58,190.04,684.58,205.5z"/>
	<path d="M365.5,826.49v40.88c0,15.46-12.53,27.99-27.99,27.99h-39.36c-15.46,0-27.99-12.53-27.99-27.99v-40.88
		c0-15.46,12.53-27.99,27.99-27.99h39.36C352.97,798.5,365.5,811.03,365.5,826.49z"/>
	<path d="M491.57,829.34v40.88c0,15.46-12.53,27.99-27.99,27.99h-39.36c-15.46,0-27.99-12.53-27.99-27.99v-40.88
		c0-15.46,12.53-27.99,27.99-27.99h39.36C479.04,801.35,491.57,813.88,491.57,829.34z"/>
</g>
</svg>
